<svg width="54" height="40" viewBox="0 0 54 40" fill="none" xmlns="http://www.w3.org/2000/svg">
<path d="M6.747 18.3553H0.628936C0.295896 18.3553 0.0368652 18.0168 0.0368652 17.6168C0.0368652 17.4784 0.0615349 17.3399 0.123209 17.2322C1.02365 15.4014 3.21924 11.5861 7.41308 7.77068H7.42541C7.57343 7.61683 11.977 2.81683 19.7602 0.832216C19.7602 0.832216 30.5532 -2.33701 40.9761 3.69375C40.9761 3.69375 49.6968 9.12452 53.3355 17.263C53.4959 17.6168 53.3849 18.0784 53.1012 18.263C53.0148 18.3245 52.9162 18.3553 52.8175 18.3553H50.1902C49.3391 18.3553 48.562 17.7861 48.1303 16.8784C47.3655 15.2014 45.6633 12.2784 42.1972 9.17068C42.1972 9.17068 35.9311 3.40145 26.088 4.61683C26.088 4.61683 20.488 5.12452 15.8501 8.73991H15.8377C15.7144 8.81683 12.8897 10.5553 8.79457 17.0784C8.31352 17.8938 7.54876 18.3553 6.747 18.3553Z" fill="white"/>
<path d="M46.6501 21.3555H52.7681C53.1012 21.3555 53.3602 21.6939 53.3602 22.0939C53.3602 22.2324 53.3355 22.3555 53.2738 22.4785C52.3734 24.3093 50.1778 28.1247 45.984 31.9401L45.9716 31.9555C45.799 32.1555 41.3831 36.9247 33.6492 38.8939C33.6492 38.8939 22.8686 42.0632 12.4333 36.0324C12.4333 36.0324 3.71261 30.6016 0.0738406 22.4632C-0.0865118 22.1093 0.0245015 21.6478 0.308202 21.4632C0.394546 21.4016 0.493224 21.3709 0.591902 21.3709H3.19455C4.04565 21.3709 4.83507 21.9401 5.25446 22.8632C6.01922 24.5401 7.72142 27.4632 11.1875 30.5709C11.1875 30.5709 17.4536 36.3401 27.2844 35.1247C27.2844 35.1247 32.8844 34.617 37.5223 31.0016L37.5346 30.9862C37.7073 30.8785 40.5073 29.1247 44.5655 22.6478C45.0835 21.8324 45.8483 21.3709 46.6501 21.3555Z" fill="white"/>
<path d="M32.8968 23.0936C32.2184 23.0936 31.577 23.509 31.1823 24.2167C30.5162 25.432 29.5417 26.3397 28.4193 26.8013C28.4193 26.8013 25.0519 28.3243 22.5726 24.7859L35.3267 17.6474C35.8325 17.3551 36.0668 16.6167 35.8818 15.9705C33.9699 9.73973 28.3699 6.61666 23.3743 9.00127C18.3787 11.3859 15.8748 18.3705 17.7867 24.6013C19.6986 30.832 25.2985 33.9551 30.2941 31.5705C33.0571 30.2628 35.1787 27.4474 36.0792 23.9243C36.1655 23.5705 36.0052 23.2013 35.7338 23.0936C35.6845 23.0782 35.6228 23.0628 35.5734 23.0628L32.8968 23.0936ZM21.2774 20.3551C21.2774 16.6167 23.7074 13.5705 26.7047 13.5705C28.3329 13.5705 29.8624 14.4628 30.8986 16.032L21.3514 21.4167C21.3021 21.0628 21.2774 20.709 21.2774 20.3551Z" fill="#44C0F0"/>
<path d="M32.8968 23.0936C32.2184 23.0936 31.577 23.509 31.1823 24.2167C30.5162 25.432 29.5417 26.3397 28.4193 26.8013C28.4193 26.8013 25.0519 28.3243 22.5726 24.7859L35.3267 17.6474C35.8325 17.3551 36.0668 16.6167 35.8818 15.9705C33.9699 9.73973 28.3699 6.61666 23.3743 9.00127C18.3787 11.3859 15.8748 18.3705 17.7867 24.6013C19.6986 30.832 25.2985 33.9551 30.2941 31.5705C33.0571 30.2628 35.1787 27.4474 36.0792 23.9243C36.1655 23.5705 36.0052 23.2013 35.7338 23.0936C35.6845 23.0782 35.6228 23.0628 35.5734 23.0628L32.8968 23.0936ZM21.2774 20.3551C21.2774 16.6167 23.7074 13.5705 26.7047 13.5705C28.3329 13.5705 29.8624 14.4628 30.8986 16.032L21.3514 21.4167C21.3021 21.0628 21.2774 20.709 21.2774 20.3551Z" fill="white"/>
</svg>
